# xmcd CD database file
#
# Track frame offsets:
#	150
#	21667
#	44685
#	61660
#	73927
#	89860
#	99482
#	119092
#	133322
#	163887
#	186810
#	204427
#	230740
#	244025
#	262172
#	278625
#	295697
#	310322
#	326070
#	337932
#
# Disc length: 4729 seconds
#
# Revision: 0
# Processed by: cddbd v1.5.2PL0 Copyright (c) Steve Scherf et al.
# Submitted via: CDex 1.51
#
DISCID=46127714
DTITLE=John Peterson - We are his people
DYEAR=2000
DGENRE=Country
TTITLE0=We are his people
TTITLE1=I was hungry
TTITLE2=Come home
TTITLE3=Lay it on down
TTITLE4=When the carpenter came
TTITLE5=There's time
TTITLE6=The LORD gave me
TTITLE7=Holy LORD
TTITLE8=To be one
TTITLE9=Don't you know
TTITLE10=Love is
TTITLE11=Pressing toward the mark
TTITLE12=Let him pray
TTITLE13=Walk alone
TTITLE14=Who's got the courage
TTITLE15=Love not this world
TTITLE16=Lord if it were not for you
TTITLE17=Fishers of men
TTITLE18=That'll be the day
TTITLE19=Candle song
EXTD=YEAR: 2000
EXTT0=
EXTT1=
EXTT2=
EXTT3=
EXTT4=
EXTT5=
EXTT6=
EXTT7=
EXTT8=
EXTT9=
EXTT10=
EXTT11=
EXTT12=
EXTT13=
EXTT14=
EXTT15=
EXTT16=
EXTT17=
EXTT18=
EXTT19=
PLAYORDER=
